# xmcd CD database file
#
# Track frame offsets:
#	150
#	29930
#	55060
#	76000
#	99997
#	125017
#	148078
#	170113
#	198429
#	215681
#	234086
#
# Disc length: 3567 seconds
#
# Revision: 0
# Processed by: cddbd v1.5.2PL0 Copyright (c) Steve Scherf et al.
# Submitted via: CDex 1.51
#
DISCID=9c0ded0b
DTITLE=Latin Breeze - Live In Las Vegas
DYEAR=2000
DGENRE=Salsa
TTITLE0=Triangulo Amoroso
TTITLE1=I Still Believe
TTITLE2=Quiero Estar Contigo
TTITLE3=Chinandegana
TTITLE4=Que Alguien Me Diga
TTITLE5=Con Los Anos
TTITLE6=Sufirendo Por Esa
TTITLE7=La Vida En Un Carnaval
TTITLE8=Mayaya La Sinki
TTITLE9=Mentiroso
TTITLE10=Y Volvere
EXTD=YEAR: 2000
EXTT0=
EXTT1=
EXTT2=
EXTT3=
EXTT4=
EXTT5=
EXTT6=
EXTT7=
EXTT8=
EXTT9=
EXTT10=
PLAYORDER=
